<svg width="100" height="100" viewBox="0 0 37 48" fill="none" xmlns="http://www.w3.org/2000/svg">
<path d="M34.288 12.6561C35.7858 12.6561 37 11.4419 37 9.94408C37 8.44627 35.7858 7.23206 34.288 7.23206C32.7902 7.23206 31.576 8.44627 31.576 9.94408C31.576 11.4419 32.7902 12.6561 34.288 12.6561Z" fill="#2B2B2B"/>
<path d="M27.0559 7.23206C28.5537 7.23206 29.7679 6.01784 29.7679 4.52003C29.7679 3.02223 28.5537 1.80801 27.0559 1.80801C25.5581 1.80801 24.3439 3.02223 24.3439 4.52003C24.3439 6.01784 25.5581 7.23206 27.0559 7.23206Z" fill="#2B2B2B"/>
<path d="M19.8239 5.42405C21.3217 5.42405 22.5359 4.20983 22.5359 2.71202C22.5359 1.21421 21.3217 0 19.8239 0C18.3261 0 17.1118 1.21421 17.1118 2.71202C17.1118 4.20983 18.3261 5.42405 19.8239 5.42405Z" fill="#2B2B2B"/>
<path d="M12.5918 9.04008C14.0896 9.04008 15.3038 7.82586 15.3038 6.32805C15.3038 4.83025 14.0896 3.61603 12.5918 3.61603C11.094 3.61603 9.8798 4.83025 9.8798 6.32805C9.8798 7.82586 11.094 9.04008 12.5918 9.04008Z" fill="#2B2B2B"/>
<path d="M31.576 9.94408V21.6962C31.576 22.1952 31.171 22.6002 30.672 22.6002C30.1729 22.6002 29.7679 22.1952 29.7679 21.6962V4.52003H24.3439V19.8882C24.3439 20.3872 23.9389 20.7922 23.4399 20.7922C22.9409 20.7922 22.5359 20.3872 22.5359 19.8882V2.71202H17.1118V19.8882C17.1118 20.3872 16.7068 20.7922 16.2078 20.7922C15.7088 20.7922 15.3038 20.3872 15.3038 19.8882V6.32805H9.87979V28.9282L6.21856 23.9182C5.13375 22.2458 3.01656 21.6853 1.46529 22.6436C-0.0805659 23.6235 -0.463865 25.7606 0.606479 27.4276C0.606479 27.4276 6.51145 36.3646 9.02821 40.1904C11.545 44.0161 15.622 47.0084 23.2464 47.0084C35.87 47.0084 37 37.2596 37 34.3523C37 31.445 37 9.94408 37 9.94408H31.576Z" fill="#2B2B2B"/>
</svg>
