<svg width="150" height="150" viewBox="0 0 100 100" fill="none" xmlns="http://www.w3.org/2000/svg">
<circle cx="50" cy="50" r="43" fill="#CECECE" stroke="url(#paint0_linear)" stroke-width="14"/>
<path d="M63.288 38.6561C64.7858 38.6561 66 37.4419 66 35.9441C66 34.4463 64.7858 33.2321 63.288 33.2321C61.7902 33.2321 60.576 34.4463 60.576 35.9441C60.576 37.4419 61.7902 38.6561 63.288 38.6561Z" fill="#2B2B2B"/>
<path d="M56.0559 33.2321C57.5537 33.2321 58.7679 32.0178 58.7679 30.52C58.7679 29.0222 57.5537 27.808 56.0559 27.808C54.5581 27.808 53.3439 29.0222 53.3439 30.52C53.3439 32.0178 54.5581 33.2321 56.0559 33.2321Z" fill="#2B2B2B"/>
<path d="M48.8239 31.424C50.3217 31.424 51.5359 30.2098 51.5359 28.712C51.5359 27.2142 50.3217 26 48.8239 26C47.3261 26 46.1118 27.2142 46.1118 28.712C46.1118 30.2098 47.3261 31.424 48.8239 31.424Z" fill="#2B2B2B"/>
<path d="M41.5918 35.0401C43.0896 35.0401 44.3038 33.8259 44.3038 32.3281C44.3038 30.8302 43.0896 29.616 41.5918 29.616C40.094 29.616 38.8798 30.8302 38.8798 32.3281C38.8798 33.8259 40.094 35.0401 41.5918 35.0401Z" fill="#2B2B2B"/>
<path d="M60.576 35.9441V47.6962C60.576 48.1952 60.171 48.6002 59.672 48.6002C59.1729 48.6002 58.7679 48.1952 58.7679 47.6962V30.52H53.3439V45.8882C53.3439 46.3872 52.9389 46.7922 52.4399 46.7922C51.9409 46.7922 51.5359 46.3872 51.5359 45.8882V28.712H46.1118V45.8882C46.1118 46.3872 45.7068 46.7922 45.2078 46.7922C44.7088 46.7922 44.3038 46.3872 44.3038 45.8882V32.328H38.8798V54.9282L35.2186 49.9182C34.1337 48.2458 32.0166 47.6853 30.4653 48.6436C28.9194 49.6235 28.5361 51.7606 29.6065 53.4276C29.6065 53.4276 35.5115 62.3646 38.0282 66.1904C40.545 70.0161 44.622 73.0084 52.2464 73.0084C64.87 73.0084 66 63.2596 66 60.3523C66 57.445 66 35.9441 66 35.9441H60.576Z" fill="#2B2B2B"/>
<defs>
<linearGradient id="paint0_linear" x1="-13" y1="15" x2="86.5" y2="112.5" gradientUnits="userSpaceOnUse">
<stop stop-color="#2A00D5"/>
<stop offset="1" stop-color="#2404A2" stop-opacity="0.8"/>
</linearGradient>
</defs>
</svg>
