<svg width="100" height="100" viewBox="0 0 45 45" fill="none" xmlns="http://www.w3.org/2000/svg">
<g clip-path="url(#clip0)">
<path d="M20.5661 3.8315C20.974 3.21978 20.8027 2.39273 20.1854 1.99336L17.4318 0.211638C16.8264 -0.18009 16.0186 -0.0127465 15.6186 0.587195L12.209 5.70155L17.5417 8.36789L20.5661 3.8315Z" fill="#2B2B2B"/>
<path d="M25.2513 12.2227L27.7476 8.47828C28.1554 7.86656 27.9841 7.03951 27.3669 6.64013L24.6132 4.85841C24.0079 4.46668 23.2 4.63403 22.8001 5.23397L19.9186 9.55625L25.2513 12.2227Z" fill="#2B2B2B"/>
<path d="M25.8498 18.8568L28.2642 19.9299C28.8511 20.1907 29.5404 19.9907 29.8966 19.4564L34.3621 12.7582C34.7699 12.1465 34.5986 11.3194 33.9813 10.9201L31.7947 9.5051C31.1893 9.11337 30.3815 9.28072 29.9815 9.88066L25.2882 16.9207C24.835 17.6007 25.1031 18.525 25.8498 18.8568Z" fill="#2B2B2B"/>
<path d="M40.5958 15.2001L38.4092 13.7852C37.8038 13.3935 36.996 13.5608 36.596 14.1608L32.592 20.1669C32.1387 20.8468 32.4068 21.771 33.1535 22.1029L35.5679 23.176C36.1548 23.4367 36.8441 23.2369 37.2003 22.7025L40.9765 17.0381C41.3844 16.4266 41.2131 15.5995 40.5958 15.2001V15.2001Z" fill="#2B2B2B"/>
<path d="M36.1029 25.9265C36.1027 25.9265 36.1028 25.9265 36.1027 25.9265C35.5463 25.9265 35.006 25.8117 34.497 25.5854L22.1768 20.1099H21.3437L26.882 31.1863C27.217 31.8565 26.9278 32.6754 26.2347 32.9822C25.5856 33.2695 24.8244 32.9672 24.507 32.3322L18.3958 20.1099H12.7557C12.0458 20.1099 11.4349 19.5644 11.4015 18.8553C11.3658 18.0982 11.9691 17.4732 12.7184 17.4732H21.0455C21.4863 17.4732 21.8979 17.2528 22.1425 16.8861L22.949 15.6762C23.3889 15.0164 23.1509 14.1203 22.4416 13.7657L11.7761 8.43293C11.1814 8.13559 10.4584 8.32764 10.0896 8.88082L4.02328 17.9804C3.71478 18.4431 3.72981 19.0496 4.06081 19.4964L13.7777 32.6142C14.0124 32.9309 14.093 33.3361 13.9974 33.7186L11.5865 43.3618C11.3785 44.1939 12.0079 44.9999 12.8655 44.9999H32.8043C33.5324 44.9999 34.1227 44.4096 34.1227 43.6815V36.6449C34.1227 36.2049 34.3422 35.7939 34.7079 35.5492C34.7079 35.5492 35.0387 35.328 35.5279 35.0017C37.6969 33.5558 38.9918 31.1364 38.9918 28.5296V24.6709C38.2505 25.4655 37.2105 25.9265 36.1029 25.9265V25.9265Z" fill="#2B2B2B"/>
</g>
<defs>
<clipPath id="clip0">
<rect width="45" height="45" fill="white"/>
</clipPath>
</defs>
</svg>
