<svg width="100" height="100" viewBox="0 0 45 45" fill="none" xmlns="http://www.w3.org/2000/svg">
<g clip-path="url(#clip0)">
<path d="M31.822 22.3516C31.2166 21.9599 30.4088 22.1273 30.0089 22.7272L25.2872 29.8099C24.8339 30.4898 25.102 31.414 25.8487 31.7459L28.2895 32.8308C28.8764 33.0915 29.5657 32.8917 29.9219 32.3573L34.4133 25.6202C34.8211 25.0085 34.6498 24.1814 34.0326 23.7821L31.822 22.3516Z" fill="#2B2B2B"/>
<path d="M11.3062 18.1163L25.2621 25.0942L29.1657 19.2386L34.7674 3.29124C34.9693 2.71652 34.7512 2.07835 34.2397 1.74744L31.8665 0.211818C31.1984 -0.220516 30.3023 0.0332238 29.9601 0.75173L22.3647 16.6977C22.0129 17.4363 21.2571 17.9134 20.4392 17.9134C19.6211 17.9134 18.8655 17.4362 18.5137 16.6977L10.9184 0.75173C10.5761 0.0332238 9.68019 -0.220516 9.01195 0.211818L6.63741 1.74823C6.12624 2.07897 5.90809 2.7167 6.10945 3.29124L11.3062 18.1163Z" fill="#2B2B2B"/>
<path d="M40.671 28.0775L38.4604 26.647C37.855 26.2553 37.0472 26.4227 36.6473 27.0226L32.6173 33.0676C32.164 33.7475 32.4321 34.6718 33.1788 35.0037L35.6197 36.0885C36.2065 36.3493 36.8959 36.1494 37.2521 35.615L41.0518 29.9155C41.4596 29.3039 41.2883 28.4768 40.671 28.0775V28.0775Z" fill="#2B2B2B"/>
<path d="M36.1547 38.839C35.6018 38.839 35.055 38.7229 34.5497 38.4984L22.1759 32.9989H12.7194C12.0095 32.9989 11.3987 32.4534 11.3654 31.7442C11.3298 30.9872 11.933 30.3622 12.6823 30.3622H21.0446C21.4854 30.3622 21.8971 30.1418 22.1415 29.7751L22.9598 28.5477C23.3996 27.8879 23.1616 26.9918 22.4524 26.6372L11.7312 21.2766C11.1365 20.9792 10.4135 21.1713 10.0447 21.7245L3.94805 30.8694C3.63955 31.332 3.65458 31.9386 3.98558 32.3854L12.9344 44.4663C13.1831 44.802 13.5761 45 13.9938 45H34.4169C34.7665 45 35.1019 44.8611 35.3492 44.6138L37.1377 42.8251C38.3742 41.5888 39.0551 39.945 39.0551 38.1964V37.571C38.3131 38.373 37.2681 38.839 36.1547 38.839V38.839Z" fill="#2B2B2B"/>
</g>
<defs>
<clipPath id="clip0">
<rect width="45" height="45" fill="white"/>
</clipPath>
</defs>
</svg>
