<svg width="150" height="150" viewBox="0 0 100 100" fill="none" xmlns="http://www.w3.org/2000/svg">
<path d="M93 50C93 73.7482 73.7482 93 50 93C26.2518 93 7 73.7482 7 50C7 26.2518 26.2518 7 50 7C73.7482 7 93 26.2518 93 50Z" fill="#CECECE" stroke="url(#paint0_linear)" stroke-width="14"/>
<g clip-path="url(#clip0)">
<path d="M58.822 49.3516C58.2166 48.9599 57.4088 49.1273 57.0089 49.7272L52.2872 56.8099C51.8339 57.4898 52.102 58.414 52.8487 58.7459L55.2895 59.8308C55.8764 60.0915 56.5657 59.8917 56.9219 59.3573L61.4133 52.6202C61.8211 52.0085 61.6498 51.1814 61.0326 50.7821L58.822 49.3516Z" fill="#2B2B2B"/>
<path d="M38.3062 45.1163L52.2621 52.0942L56.1657 46.2386L61.7674 30.2912C61.9693 29.7165 61.7512 29.0784 61.2397 28.7474L58.8665 27.2118C58.1984 26.7795 57.3023 27.0332 56.9601 27.7517L49.3647 43.6977C49.0129 44.4363 48.2571 44.9134 47.4392 44.9134C46.6211 44.9134 45.8655 44.4362 45.5137 43.6977L37.9184 27.7517C37.5761 27.0332 36.6802 26.7795 36.012 27.2118L33.6374 28.7482C33.1262 29.079 32.9081 29.7167 33.1095 30.2912L38.3062 45.1163Z" fill="#2B2B2B"/>
<path d="M67.671 55.0775L65.4604 53.647C64.855 53.2553 64.0472 53.4227 63.6473 54.0226L59.6173 60.0676C59.164 60.7475 59.4321 61.6718 60.1788 62.0037L62.6197 63.0885C63.2065 63.3493 63.8959 63.1494 64.2521 62.615L68.0518 56.9155C68.4596 56.3039 68.2883 55.4768 67.671 55.0775V55.0775Z" fill="#2B2B2B"/>
<path d="M63.1547 65.839C62.6018 65.839 62.055 65.7229 61.5497 65.4984L49.1759 59.9989H39.7194C39.0095 59.9989 38.3987 59.4534 38.3654 58.7442C38.3298 57.9872 38.933 57.3622 39.6823 57.3622H48.0446C48.4854 57.3622 48.8971 57.1418 49.1415 56.7751L49.9598 55.5477C50.3996 54.8879 50.1616 53.9918 49.4524 53.6372L38.7312 48.2766C38.1365 47.9792 37.4135 48.1713 37.0447 48.7245L30.948 57.8694C30.6396 58.332 30.6546 58.9386 30.9856 59.3854L39.9344 71.4663C40.1831 71.802 40.5761 72 40.9938 72H61.4169C61.7665 72 62.1019 71.8611 62.3492 71.6138L64.1377 69.8251C65.3742 68.5888 66.0551 66.945 66.0551 65.1964V64.571C65.3131 65.373 64.2681 65.839 63.1547 65.839V65.839Z" fill="#2B2B2B"/>
</g>
<defs>
<linearGradient id="paint0_linear" x1="63.5" y1="-62" x2="-59" y2="100" gradientUnits="userSpaceOnUse">
<stop stop-color="#FD7900"/>
<stop offset="0.9999" stop-color="#6F695A"/>
<stop offset="1" stop-color="#DF0000" stop-opacity="0.5"/>
</linearGradient>
<clipPath id="clip0">
<rect width="45" height="45" fill="white" transform="translate(27 27)"/>
</clipPath>
</defs>
</svg>
