<svg width="478" height="492" viewBox="0 0 478 492" fill="none" xmlns="http://www.w3.org/2000/svg">
<path d="M301.803 430.81C295.116 430.835 289.716 436.277 289.741 442.964C289.767 449.651 295.208 455.051 301.895 455.026C308.582 455.001 313.982 449.559 313.957 442.872C313.932 436.185 308.49 430.785 301.803 430.81Z" fill="#FF0000"/>
<path d="M334.183 454.904C327.496 454.929 322.095 460.37 322.121 467.057C322.146 473.744 327.587 479.145 334.274 479.119C340.961 479.094 346.362 473.653 346.337 466.966C346.311 460.279 340.87 454.878 334.183 454.904Z" fill="#FF0000"/>
<path d="M366.501 462.853C359.814 462.878 354.414 468.32 354.439 475.007C354.464 481.694 359.906 487.094 366.593 487.069C373.28 487.043 378.68 481.602 378.655 474.915C378.629 468.228 373.188 462.828 366.501 462.853Z" fill="#FF0000"/>
<path d="M398.727 446.587C392.04 446.612 386.64 452.054 386.665 458.741C386.691 465.428 392.132 470.828 398.819 470.803C405.506 470.777 410.907 465.336 410.881 458.649C410.856 451.962 405.414 446.561 398.727 446.587Z" fill="#FF0000"/>
<path d="M313.957 442.872L313.758 390.405C313.75 388.177 315.551 386.362 317.779 386.353C320.007 386.345 321.822 388.146 321.83 390.374L322.121 467.057L346.337 466.966L346.077 398.354C346.068 396.126 347.869 394.311 350.097 394.303C352.325 394.294 354.14 396.096 354.148 398.324L354.439 475.007L378.655 474.915L378.364 398.232C378.356 396.004 380.157 394.189 382.385 394.181C384.613 394.172 386.428 395.973 386.436 398.201L386.666 458.741L410.881 458.649L410.499 357.75L426.929 380.055C431.801 387.503 441.263 389.97 448.172 385.666C455.057 381.264 456.732 371.717 451.925 364.293C451.925 364.293 425.411 324.493 414.11 307.455C402.809 290.418 384.557 277.128 350.517 277.257C294.159 277.47 289.279 321.013 289.328 333.993C289.378 346.973 289.741 442.964 289.741 442.964L313.957 442.872Z" fill="#FF0000"/>
<g clip-path="url(#clip0)">
<path d="M22.0242 398.175C19.2862 396.365 15.5967 397.144 13.8242 399.906L5.91623 412.23C4.17759 414.939 4.93837 418.543 7.62359 420.319L30.5144 435.454L42.3281 411.601L22.0242 398.175Z" fill="#FF0000"/>
<path d="M59.4076 377.116L42.6483 366.035C39.9104 364.225 36.2209 365.003 34.4483 367.766L26.5404 380.09C24.8018 382.799 25.5625 386.403 28.2478 388.178L47.5934 400.97L59.4076 377.116Z" fill="#FF0000"/>
<path d="M89.0157 374.332L93.7656 363.535C94.9199 360.91 94.0155 357.836 91.6241 356.255L61.6442 336.432C58.9062 334.622 55.2167 335.401 53.4442 338.163L47.1641 347.949C45.4254 350.659 46.1862 354.262 48.8714 356.038L80.3813 376.872C83.4249 378.884 87.5467 377.672 89.0157 374.332Z" fill="#FF0000"/>
<path d="M72.4405 308.56L66.1608 318.346C64.4221 321.056 65.1829 324.659 67.8681 326.435L94.7502 344.209C97.7934 346.221 101.915 345.009 103.384 341.67L108.134 330.872C109.288 328.248 108.384 325.174 105.993 323.592L80.6401 306.829C77.903 305.019 74.2135 305.798 72.4405 308.56Z" fill="#FF0000"/>
<path d="M120.405 328.437C120.405 328.438 120.405 328.438 120.405 328.438C120.414 330.922 119.911 333.336 118.909 335.613L94.6723 390.709L94.6863 394.428L144.044 369.515C147.03 368.008 150.691 369.286 152.072 372.375C153.366 375.268 152.029 378.671 149.2 380.099L94.7362 407.59L94.8316 432.77C94.8436 435.939 92.4184 438.676 89.2532 438.837C85.8737 439.009 83.0732 436.326 83.0606 432.981L82.9197 395.804C82.9122 393.837 81.9216 392.002 80.28 390.917L74.8647 387.336C71.9116 385.384 67.9152 386.461 66.3439 389.634L42.7161 437.341C41.3987 440.001 42.2683 443.226 44.7442 444.863L85.4722 471.792C87.5429 473.161 90.2505 473.084 92.2399 471.599L150.64 427.995C152.05 426.942 153.858 426.576 155.567 426.996L198.66 437.596C202.378 438.511 205.966 435.687 205.952 431.858L205.614 342.841C205.602 339.591 202.957 336.965 199.706 336.978L168.291 337.097C166.327 337.104 164.488 336.131 163.389 334.502C163.389 334.502 162.396 333.03 160.931 330.851C154.439 321.192 143.616 315.452 131.978 315.496L114.75 315.561C118.311 318.857 120.386 323.492 120.405 328.437Z" fill="#FF0000"/>
</g>
<path d="M430.736 100.243C428.014 98.5231 424.416 99.3094 422.659 102.007L401.924 133.855C399.933 136.912 401.175 141.026 404.525 142.471L415.474 147.196C418.106 148.331 421.174 147.406 422.738 145.003L442.462 114.709C444.253 111.958 443.448 108.274 440.674 106.521L430.736 100.243Z" fill="#FF0000"/>
<path d="M338.942 82.3293L401.583 112.804L418.726 86.4736L442.961 15.0086C443.834 12.4331 442.829 9.59466 440.53 8.14219L429.861 1.40176C426.857 -0.49591 422.869 0.680302 421.376 3.90451L388.241 75.4603C386.707 78.7745 383.355 80.9413 379.704 80.9809C376.052 81.0206 372.655 78.9267 371.049 75.647L336.368 4.82767C334.806 1.63664 330.794 0.547306 327.831 2.50977L317.305 9.4839C315.039 10.9852 314.096 13.8428 315.023 16.3979L338.942 82.3293Z" fill="#FF0000"/>
<path d="M470.518 125.375L460.58 119.097C457.858 117.377 454.26 118.164 452.504 120.861L434.805 148.043C432.815 151.101 434.056 155.214 437.406 156.659L448.356 161.384C450.988 162.52 454.056 161.594 455.62 159.191L472.307 133.563C474.098 130.812 473.293 127.128 470.518 125.375Z" fill="#FF0000"/>
<path d="M450.877 173.637C448.409 173.664 445.962 173.172 443.696 172.194L388.189 148.243L345.972 148.701C342.803 148.736 340.05 146.33 339.867 143.166C339.671 139.788 342.334 136.968 345.679 136.932L383.01 136.526C384.978 136.505 386.805 135.501 387.879 133.852L391.472 128.333C393.404 125.366 392.298 121.378 389.114 119.829L340.992 96.4172C338.323 95.1186 335.104 96.011 333.485 98.4984L306.711 139.62C305.356 141.7 305.453 144.407 306.952 146.386L347.488 199.885C348.614 201.371 350.379 202.236 352.243 202.216L443.418 201.226C444.979 201.209 446.469 200.573 447.561 199.456L455.459 191.385C460.919 185.805 463.879 178.434 463.794 170.628L463.764 167.835C460.49 171.452 455.848 173.583 450.877 173.637Z" fill="#FF0000"/>
<defs>
<clipPath id="clip0">
<rect width="200.905" height="200.905" fill="white" transform="translate(5.26624 490.058) rotate(-90.2171)"/>
</clipPath>
</defs>
</svg>
