<svg width="150" height="150" viewBox="0 0 100 100" fill="none" xmlns="http://www.w3.org/2000/svg">
<circle cx="50" cy="50" r="43" fill="#CECECE" stroke="url(#paint0_linear)" stroke-width="14"/>
<g clip-path="url(#clip0)">
<path d="M47.5661 30.8315C47.974 30.2198 47.8027 29.3927 47.1854 28.9934L44.4318 27.2116C43.8264 26.8199 43.0186 26.9873 42.6186 27.5872L39.209 32.7015L44.5417 35.3679L47.5661 30.8315Z" fill="#2B2B2B"/>
<path d="M52.2513 39.2227L54.7476 35.4783C55.1554 34.8666 54.9841 34.0395 54.3669 33.6401L51.6132 31.8584C51.0079 31.4667 50.2 31.634 49.8001 32.234L46.9186 36.5563L52.2513 39.2227Z" fill="#2B2B2B"/>
<path d="M52.8498 45.8568L55.2642 46.9299C55.8511 47.1907 56.5404 46.9907 56.8966 46.4564L61.3621 39.7582C61.7699 39.1465 61.5986 38.3194 60.9813 37.9201L58.7947 36.5051C58.1893 36.1134 57.3815 36.2807 56.9815 36.8807L52.2882 43.9207C51.835 44.6007 52.1031 45.525 52.8498 45.8568Z" fill="#2B2B2B"/>
<path d="M67.5958 42.2001L65.4092 40.7852C64.8038 40.3935 63.996 40.5608 63.596 41.1608L59.592 47.1669C59.1387 47.8468 59.4068 48.771 60.1535 49.1029L62.5679 50.176C63.1548 50.4367 63.8441 50.2369 64.2003 49.7025L67.9765 44.0381C68.3844 43.4266 68.2131 42.5995 67.5958 42.2001V42.2001Z" fill="#2B2B2B"/>
<path d="M63.1029 52.9265C63.1027 52.9265 63.1028 52.9265 63.1027 52.9265C62.5463 52.9265 62.006 52.8117 61.497 52.5854L49.1768 47.1099H48.3437L53.882 58.1863C54.217 58.8565 53.9278 59.6754 53.2347 59.9822C52.5856 60.2695 51.8244 59.9672 51.507 59.3322L45.3958 47.1099H39.7557C39.0458 47.1099 38.4349 46.5644 38.4015 45.8553C38.3658 45.0982 38.9691 44.4732 39.7184 44.4732H48.0455C48.4863 44.4732 48.8979 44.2528 49.1425 43.8861L49.949 42.6762C50.3889 42.0164 50.1509 41.1203 49.4416 40.7657L38.7761 35.4329C38.1814 35.1356 37.4584 35.3276 37.0896 35.8808L31.0233 44.9804C30.7148 45.4431 30.7298 46.0496 31.0608 46.4964L40.7777 59.6142C41.0124 59.9309 41.093 60.3361 40.9974 60.7186L38.5865 70.3618C38.3785 71.1939 39.0079 71.9999 39.8655 71.9999H59.8043C60.5324 71.9999 61.1227 71.4096 61.1227 70.6815V63.6449C61.1227 63.2049 61.3422 62.7939 61.7079 62.5492C61.7079 62.5492 62.0387 62.328 62.5279 62.0017C64.6969 60.5558 65.9918 58.1364 65.9918 55.5296V51.6709C65.2505 52.4655 64.2105 52.9265 63.1029 52.9265V52.9265Z" fill="#2B2B2B"/>
</g>
<defs>
<linearGradient id="paint0_linear" x1="-13" y1="15" x2="86.5" y2="112.5" gradientUnits="userSpaceOnUse">
<stop stop-color="#630000"/>
<stop offset="1" stop-color="#FF0909" stop-opacity="0.8"/>
<stop offset="1" stop-color="#FF0909" stop-opacity="0.8"/>
<stop offset="1" stop-color="#4B3A3A" stop-opacity="0.8"/>
</linearGradient>
<clipPath id="clip0">
<rect width="45" height="45" fill="white" transform="translate(27 27)"/>
</clipPath>
</defs>
</svg>
